<svg xmlns="http://www.w3.org/2000/svg" version="1.1" xmlns:xlink="http://www.w3.org/1999/xlink" xmlns:svgjs="http://svgjs.dev/svgjs" viewBox="0 0 8.965327014138133 10.12592913929729"><g transform="matrix(1,0,0,1,0.7937035461315656,7.390855280665724)"><g><path d=" M 1.3365 0.09149999999999991 C 1.302 0.09149999999999991 1.2585 0.16049999999999998 1.2585 0.1815 C 1.188 0.27449999999999997 1.0995 0.963 1.0005 0.963 C 0.9855 0.963 0.984 0.8835 0.984 0.846 C 0.984 0.693 0.99 0.5549999999999999 0.9945 0.4185 C 0.9885 0.31199999999999994 1.0065 0.16799999999999993 0.933 0.08850000000000002 C 0.927 0.0645 0.888 0.05400000000000005 0.8505 0.05400000000000005 C 0.7905 0.05400000000000005 0.6960000000000001 0.0674999999999999 0.6735 0.11399999999999999 C 0.552 0.31799999999999995 0.5265 0.49049999999999994 0.4485 0.7124999999999999 C 0.423 0.7829999999999999 0.39 0.9165 0.3705 0.9299999999999999 C 0.34950000000000003 0.8474999999999999 0.34650000000000003 0.7649999999999999 0.34650000000000003 0.6824999999999999 L 0.34650000000000003 0.5834999999999999 C 0.34650000000000003 0.44999999999999996 0.36 0.24449999999999994 0.3765 0.20399999999999996 C 0.381 0.18599999999999994 0.393 0.16499999999999992 0.393 0.1469999999999999 C 0.393 0.06599999999999984 0.28500000000000003 0.050999999999999934 0.2415 0.050999999999999934 C 0.17550000000000002 0.050999999999999934 0.1215 0.08699999999999997 0.1095 0.15599999999999992 C 0.08700000000000001 0.2759999999999999 0.07050000000000001 0.42299999999999993 0.07050000000000001 0.5715 C 0.07050000000000001 0.7935 0.1095 1.0905 0.222 1.0905 C 0.42 1.0905 0.4545 1.0305 0.492 0.9105 C 0.543 0.798 0.6945 0.243 0.7395 0.1815 C 0.741 0.18899999999999995 0.741 0.1964999999999999 0.741 0.20399999999999996 C 0.741 0.21899999999999997 0.7395 0.237 0.7395 0.25349999999999995 C 0.7395 0.3869999999999999 0.726 0.5579999999999999 0.726 0.729 C 0.726 0.9119999999999999 0.753 1.08 0.909 1.08 C 0.924 1.08 0.9975 1.074 1.035 1.0454999999999999 C 1.206 0.9165 1.2405 0.6824999999999999 1.2795 0.5369999999999999 C 1.2795 0.5369999999999999 1.278 0.5235 1.2765 0.5235 C 1.2765 0.5549999999999999 1.236 0.6315 1.236 0.6645 C 1.236 0.6719999999999999 1.23 0.6749999999999999 1.23 0.6779999999999999 C 1.23 0.6824999999999999 1.2315 0.6884999999999999 1.2315 0.6884999999999999 C 1.2165 0.6884999999999999 1.218 0.7275 1.2075 0.7275 C 1.2075 0.7095 1.2375 0.6359999999999999 1.242 0.6194999999999999 C 1.2465 0.606 1.2735 0.5129999999999999 1.278 0.48749999999999993 C 1.2765 0.48449999999999993 1.2765 0.46799999999999997 1.2765 0.46499999999999997 C 1.2705 0.486 1.2615 0.5445 1.2555 0.5445 C 1.254 0.5459999999999999 1.2435 0.5925 1.242 0.6 C 1.2405 0.597 1.239 0.5954999999999999 1.239 0.5925 C 1.242 0.5715 1.2570000000000001 0.5279999999999999 1.2615 0.5129999999999999 C 1.2615 0.507 1.2630000000000001 0.507 1.2630000000000001 0.504 C 1.2615 0.5025 1.2615 0.49949999999999994 1.2615 0.49649999999999994 C 1.2615 0.492 1.2675 0.4365 1.272 0.4365 C 1.272 0.4365 1.2735 0.43799999999999994 1.2735 0.4425 C 1.2750000000000001 0.44399999999999995 1.2750000000000001 0.44699999999999995 1.2750000000000001 0.4485 C 1.2750000000000001 0.4514999999999999 1.2750000000000001 0.45299999999999996 1.278 0.45299999999999996 C 1.281 0.4365 1.29 0.4155 1.29 0.4109999999999999 C 1.287 0.4155 1.2855 0.4185 1.284 0.4185 C 1.281 0.4185 1.281 0.4139999999999999 1.281 0.4079999999999999 C 1.281 0.37049999999999994 1.2915 0.3464999999999999 1.293 0.3464999999999999 C 1.293 0.36449999999999994 1.2885 0.384 1.2885 0.40049999999999997 C 1.2915 0.37949999999999995 1.3185 0.33899999999999997 1.3185 0.3075 C 1.3185 0.2955 1.32 0.2879999999999999 1.32 0.27749999999999997 C 1.32 0.2759999999999999 1.329 0.25649999999999995 1.329 0.25049999999999994 C 1.3275000000000001 0.25049999999999994 1.323 0.252 1.323 0.252 C 1.323 0.243 1.335 0.21599999999999997 1.341 0.1994999999999999 C 1.3365 0.20099999999999996 1.3335000000000001 0.2054999999999999 1.332 0.2054999999999999 C 1.3305 0.2054999999999999 1.344 0.18599999999999994 1.3455 0.1845 L 1.3455 0.1755 C 1.3485 0.16349999999999998 1.3725 0.10949999999999993 1.3785 0.10049999999999992 C 1.3785 0.09299999999999997 1.371 0.08999999999999997 1.3665 0.08999999999999997 C 1.3545 0.08999999999999997 1.3455 0.09149999999999991 1.3365 0.09149999999999991 Z M 1.8419143066406252 0.2819999999999999 C 1.904914306640625 0.26849999999999996 2.000914306640625 0.2729999999999999 2.023414306640625 0.2084999999999999 C 2.0264143066406253 0.19799999999999995 2.027914306640625 0.18899999999999995 2.027914306640625 0.1815 C 2.027914306640625 0.16199999999999992 2.0174143066406254 0.1529999999999999 2.008414306640625 0.129 C 1.997914306640625 0.08399999999999985 1.898914306640625 0.07050000000000001 1.8254143066406252 0.07050000000000001 C 1.792414306640625 0.07050000000000001 1.763914306640625 0.0734999999999999 1.750414306640625 0.07650000000000001 C 1.5374143066406252 0.123 1.336414306640625 0.4485 1.336414306640625 0.645 C 1.334914306640625 0.6615 1.334914306640625 0.6779999999999999 1.334914306640625 0.693 C 1.334914306640625 0.8474999999999999 1.3919143066406252 0.9315 1.5269143066406252 1.023 C 1.574914306640625 1.056 1.6379143066406252 1.0785 1.6964143066406252 1.0785 C 1.7234143066406251 1.0785 1.7489143066406252 1.074 1.7729143066406252 1.0635 C 1.937914306640625 0.99 2.023414306640625 0.7575 2.023414306640625 0.588 C 2.023414306640625 0.5535 2.0159143066406253 0.46199999999999997 1.9889143066406252 0.4514999999999999 C 1.9874143066406251 0.44999999999999996 1.9874143066406251 0.4485 1.9874143066406251 0.4455 C 1.9874143066406251 0.4425 1.9874143066406251 0.44099999999999995 1.985914306640625 0.4395 C 1.9814143066406251 0.42299999999999993 1.973914306640625 0.4155 1.963414306640625 0.4049999999999999 C 1.961914306640625 0.3959999999999999 1.9424143066406252 0.36449999999999994 1.9334143066406253 0.36449999999999994 L 1.9229143066406251 0.3434999999999999 C 1.9199143066406252 0.34199999999999997 1.9169143066406251 0.34199999999999997 1.913914306640625 0.34199999999999997 C 1.9094143066406253 0.34199999999999997 1.904914306640625 0.3434999999999999 1.904914306640625 0.3494999999999999 C 1.903414306640625 0.351 1.903414306640625 0.354 1.903414306640625 0.3554999999999999 C 1.903414306640625 0.36 1.904914306640625 0.363 1.904914306640625 0.36749999999999994 C 1.9169143066406251 0.3989999999999999 1.9199143066406252 0.44399999999999995 1.9199143066406252 0.477 C 1.904914306640625 0.606 1.8359143066406252 0.9524999999999999 1.6604143066406252 0.9524999999999999 C 1.5809143066406253 0.9524999999999999 1.564414306640625 0.8414999999999999 1.564414306640625 0.7575 C 1.564414306640625 0.729 1.5674143066406252 0.7035 1.5689143066406253 0.6869999999999999 C 1.6034143066406252 0.5249999999999999 1.6889143066406251 0.348 1.8419143066406252 0.2819999999999999 Z M 2.7268359375 1.0365 C 2.7253359375 1.0334999999999999 2.7253359375 1.032 2.7208359375000004 1.0274999999999999 C 2.7193359375000004 1.026 2.7238359375000005 1.026 2.7268359375 1.026 C 2.7283359375000003 1.026 2.7298359375000003 1.0274999999999999 2.7313359375000004 1.0274999999999999 C 2.6968359375000004 0.9345 2.6503359375000004 0.8445 2.6008359375000003 0.7589999999999999 C 2.5393359375 0.6555 2.4913359375 0.5385 2.4358359375000003 0.44399999999999995 C 2.5318359375000004 0.4155 2.6248359375000003 0.33599999999999997 2.6248359375000003 0.249 C 2.6248359375000003 0.13049999999999995 2.4973359375000004 0.08099999999999996 2.4253359375000003 0.0734999999999999 C 2.3923359375000004 0.05699999999999994 2.3968359375 0.04499999999999993 2.3758359375 0.04049999999999998 C 2.3728359375 0.04049999999999998 2.3698359375000004 0.04049999999999998 2.3683359375000004 0.04349999999999987 C 2.3578359375000004 0.04200000000000004 2.3488359375 0.04049999999999998 2.3398359375 0.04049999999999998 C 2.3323359375000003 0.04200000000000004 2.3263359375 0.04200000000000004 2.3188359375000003 0.04200000000000004 C 2.2963359375000003 0.04200000000000004 2.2723359375000003 0.038999999999999924 2.2498359375000003 0.038999999999999924 C 2.2258359375000003 0.038999999999999924 2.2018359375000003 0.04200000000000004 2.1823359375000004 0.058499999999999996 C 2.1748359375 0.07799999999999985 2.1343359375000004 0.06299999999999994 2.1253359375 0.08999999999999997 C 2.1253359375 0.09299999999999997 2.1208359375000003 0.09299999999999997 2.1208359375000003 0.09599999999999997 C 2.1238359375000004 0.09749999999999992 2.1268359375 0.09749999999999992 2.1283359375 0.09749999999999992 C 2.1328359375000003 0.09749999999999992 2.1373359375 0.09599999999999997 2.1403359375 0.09599999999999997 C 2.1388359375 0.09899999999999998 2.1358359375000004 0.09899999999999998 2.1358359375000004 0.09899999999999998 C 2.1388359375 0.10349999999999993 2.1403359375 0.10349999999999993 2.1448359375000003 0.10349999999999993 C 2.1283359375 0.44399999999999995 2.0623359375000003 0.735 2.0548359375 1.0574999999999999 C 2.0548359375 1.089 2.0548359375 1.125 2.0863359375000003 1.125 C 2.0863359375000003 1.125 2.0863359375000003 1.0995 2.0983359375000004 1.0995 C 2.1028359375 1.0995 2.1133359375 1.0875 2.1193359375000003 1.0875 C 2.1193359375000003 1.089 2.1178359375 1.0919999999999999 2.1178359375 1.0935 C 2.1193359375000003 1.0935 2.1328359375000003 1.089 2.1403359375 1.086 C 2.1403359375 1.086 2.1418359375000002 1.0875 2.1448359375000003 1.0875 C 2.1508359375 1.0875 2.1628359375 1.086 2.1673359375000003 1.0815 C 2.1703359375000004 1.0815 2.1733359375 1.08 2.1748359375 1.08 C 2.1763359375 1.083 2.1793359375000003 1.08 2.1793359375000003 1.0845 C 2.1793359375000003 1.0905 2.1808359375000004 1.0919999999999999 2.1808359375000004 1.0919999999999999 C 2.1838359375 1.0919999999999999 2.1838359375 1.0905 2.1838359375 1.0875 C 2.1838359375 1.08 2.1853359375 1.08 2.1868359375 1.08 C 2.1898359375000003 1.08 2.1898359375000003 1.0815 2.1898359375000003 1.083 C 2.1898359375000003 1.0845 2.1943359375000004 1.08 2.1973359375 1.08 C 2.1973359375 1.0845 2.1958359375 1.0905 2.1958359375 1.0905 C 2.1988359375 1.0905 2.2063359375000005 1.077 2.2078359375 1.077 C 2.2093359375 1.077 2.2093359375 1.0815 2.2093359375 1.0815 C 2.2093359375 1.0815 2.2123359375000002 1.08 2.2123359375000002 1.0755 C 2.2138359375000003 1.0755 2.2153359375000004 1.0785 2.2168359375000004 1.08 C 2.2213359375 1.08 2.2198359375 1.0875 2.2243359375000002 1.0875 C 2.2243359375000002 1.0845 2.2243359375000002 1.083 2.2258359375000003 1.0815 C 2.2258359375000003 1.08 2.2303359375000005 1.08 2.2303359375000005 1.08 C 2.2303359375000005 1.083 2.2363359375000003 1.0815 2.2363359375000003 1.0845 C 2.2363359375000003 1.0845 2.2633359375000004 1.0785 2.2663359375 1.0785 C 2.2753359375000004 1.0785 2.2813359375 1.0785 2.2813359375 1.0875 C 2.2813359375 1.086 2.2828359375000002 1.0815 2.2843359375000003 1.0815 C 2.2843359375000003 1.0815 2.2843359375000003 1.083 2.2888359375 1.086 C 2.3008359375000005 1.086 2.3398359375 0.6435 2.3443359375000004 0.609 C 2.3923359375000004 0.723 2.5333359375000004 0.9794999999999999 2.5648359375000003 1.0334999999999999 C 2.5768359375000003 1.053 2.5873359375000002 1.0635 2.6083359375 1.071 C 2.6113359375000003 1.068 2.6203359375 1.0695 2.6203359375 1.0635 C 2.6203359375 1.0635 2.6203359375 1.062 2.6188359375 1.059 L 2.6308359375 1.065 C 2.6293359375000005 1.0635 2.6263359375000004 1.0574999999999999 2.6263359375000004 1.053 C 2.6263359375000004 1.0514999999999999 2.6368359375000003 1.065 2.6443359375 1.065 C 2.6443359375 1.0635 2.6473359375000003 1.068 2.6488359375000003 1.071 C 2.6488359375000003 1.065 2.6473359375000003 1.062 2.6473359375000003 1.0574999999999999 C 2.6473359375000003 1.059 2.6518359375000005 1.0635 2.6548359375 1.0635 C 2.6548359375 1.0574999999999999 2.6548359375 1.056 2.6578359375000002 1.056 C 2.6548359375 1.0514999999999999 2.6533359375000005 1.047 2.6533359375000005 1.047 C 2.6638359375 1.0545 2.6638359375 1.059 2.6758359375000005 1.059 C 2.6788359375 1.059 2.6803359375 1.059 2.6803359375 1.0574999999999999 C 2.6803359375 1.056 2.6773359375 1.0514999999999999 2.6773359375 1.05 C 2.6758359375000005 1.0454999999999999 2.6743359375000004 1.041 2.6743359375000004 1.0365 C 2.6803359375 1.0394999999999999 2.6818359375000003 1.041 2.6833359375000003 1.041 C 2.6848359375000004 1.041 2.6863359375 1.0394999999999999 2.6893359375 1.0394999999999999 C 2.6863359375 1.0365 2.6863359375 1.032 2.6863359375 1.029 C 2.6908359375 1.029 2.6968359375000004 1.0365 2.6998359375000005 1.041 L 2.6998359375000005 1.029 C 2.7013359375 1.029 2.7118359375 1.032 2.7133359375 1.0334999999999999 C 2.7133359375 1.032 2.7133359375 1.0305 2.7163359375000002 1.0305 C 2.7223359375000005 1.032 2.7238359375000005 1.0365 2.7268359375 1.0365 Z M 2.3668359375000003 0.38249999999999995 C 2.3668359375000003 0.37649999999999995 2.3683359375000004 0.372 2.3683359375000004 0.366 C 2.3758359375 0.2895 2.3848359375 0.21899999999999997 2.3983359375 0.1469999999999999 C 2.4418359375000005 0.14849999999999997 2.5153359375 0.1755 2.5153359375 0.23099999999999998 C 2.5153359375 0.29699999999999993 2.4508359375000004 0.3554999999999999 2.3668359375000003 0.38249999999999995 Z M 2.1148359375 0.852 C 2.1178359375 0.855 2.1178359375 0.8564999999999999 2.1178359375 0.8594999999999999 C 2.1178359375 0.864 2.1163359375 0.867 2.1148359375 0.87 C 2.1193359375000003 0.87 2.1193359375000003 0.8684999999999999 2.1223359375000004 0.8684999999999999 L 2.1223359375000004 0.9045 C 2.1238359375000004 0.9015 2.1253359375 0.8895 2.1268359375 0.8895 C 2.1268359375 0.8925 2.1253359375 0.8985 2.1253359375 0.9015 L 2.1298359375 0.9045 C 2.1298359375 0.909 2.1253359375 0.9135 2.1253359375 0.9149999999999999 C 2.1253359375 0.9135 2.1193359375000003 0.9225 2.1163359375 0.9269999999999999 C 2.1118359375000004 0.9225 2.1103359375000004 0.9165 2.1103359375000004 0.9105 C 2.1103359375000004 0.9015 2.1133359375 0.891 2.1133359375 0.885 C 2.1133359375 0.8819999999999999 2.1118359375000004 0.876 2.1118359375000004 0.8714999999999999 C 2.1118359375000004 0.864 2.1133359375 0.858 2.1148359375 0.852 Z M 2.0983359375000004 0.9285 C 2.1013359375 0.9269999999999999 2.0998359375000004 0.9239999999999999 2.1058359375 0.9239999999999999 L 2.1058359375 0.9299999999999999 C 2.1058359375 0.9345 2.1043359375 0.9345 2.1028359375 0.9345 C 2.1013359375 0.9435 2.0998359375000004 0.951 2.0968359375000003 0.96 C 2.0968359375000003 0.957 2.0953359375000002 0.9524999999999999 2.0953359375000002 0.948 C 2.0953359375000002 0.942 2.0968359375000003 0.9345 2.0983359375000004 0.9285 Z M 2.1118359375000004 0.9854999999999999 C 2.1133359375 0.987 2.1133359375 0.9884999999999999 2.1133359375 0.99 C 2.1133359375 0.993 2.1118359375000004 0.9944999999999999 2.1118359375000004 0.999 C 2.1088359375000003 0.9974999999999999 2.1073359375000003 0.9914999999999999 2.1073359375000003 0.9914999999999999 C 2.1073359375000003 0.9854999999999999 2.1103359375000004 0.9675 2.1133359375 0.966 C 2.1133359375 0.969 2.1148359375 0.972 2.1148359375 0.975 C 2.1148359375 0.9794999999999999 2.1133359375 0.9824999999999999 2.1118359375000004 0.9854999999999999 Z M 2.1073359375000003 1.035 C 2.1073359375000003 1.0334999999999999 2.1058359375 1.032 2.1058359375 1.0305 C 2.1058359375 1.029 2.1088359375000003 1.029 2.1103359375000004 1.029 C 2.1103359375000004 1.026 2.1073359375000003 1.0245 2.1073359375000003 1.0245 C 2.1058359375 1.0215 2.1043359375 1.02 2.1043359375 1.0185 C 2.1043359375 1.0155 2.1103359375000004 1.0245 2.1103359375000004 1.0215 L 2.1133359375 1.029 L 2.1103359375000004 1.0334999999999999 C 2.1148359375 1.0334999999999999 2.1148359375 1.035 2.1148359375 1.0365 C 2.1148359375 1.0394999999999999 2.1133359375 1.044 2.1133359375 1.0454999999999999 C 2.1118359375000004 1.047 2.1103359375000004 1.047 2.1088359375000003 1.047 C 2.1088359375000003 1.0454999999999999 2.1073359375000003 1.035 2.1073359375000003 1.035 Z M 2.1148359375 0.9464999999999999 C 2.1178359375 0.948 2.1193359375000003 0.951 2.1193359375000003 0.954 C 2.1193359375000003 0.957 2.1178359375 0.96 2.1178359375 0.9615 C 2.1148359375 0.963 2.1118359375000004 0.963 2.1118359375000004 0.963 C 2.1118359375000004 0.9615 2.1118359375000004 0.96 2.1103359375000004 0.9584999999999999 C 2.1118359375000004 0.9555 2.1118359375000004 0.954 2.1118359375000004 0.9524999999999999 Z M 2.1253359375 0.8354999999999999 C 2.1268359375 0.837 2.1268359375 0.8445 2.1268359375 0.8474999999999999 C 2.1238359375000004 0.8474999999999999 2.1238359375000004 0.8445 2.1238359375000004 0.8414999999999999 C 2.1238359375000004 0.8385 2.1238359375000004 0.837 2.1253359375 0.8354999999999999 Z M 2.1328359375000003 0.9405 C 2.1343359375000004 0.9405 2.1313359375000003 0.945 2.1313359375000003 0.948 C 2.1298359375 0.9464999999999999 2.1283359375 0.945 2.1283359375 0.9435 C 2.1283359375 0.942 2.1298359375 0.9405 2.1328359375000003 0.9405 Z M 2.1418359375000002 1.017 C 2.1403359375 1.011 2.1403359375 1.008 2.1403359375 1.0065 C 2.1418359375000002 1.0065 2.1433359375000003 1.0095 2.1433359375000003 1.011 C 2.1433359375000003 1.014 2.1418359375000002 1.0155 2.1418359375000002 1.017 Z M 2.1388359375 0.9149999999999999 C 2.1388359375 0.9179999999999999 2.1388359375 0.9209999999999999 2.1358359375000004 0.9239999999999999 C 2.1358359375000004 0.9209999999999999 2.1373359375 0.9135 2.1388359375 0.9149999999999999 Z M 2.0968359375000003 0.96 C 2.0983359375000004 0.96 2.0983359375000004 0.9644999999999999 2.0983359375000004 0.9644999999999999 C 2.0983359375000004 0.9644999999999999 2.0968359375000003 0.963 2.0968359375000003 0.96 Z M 3.2037539062500002 1.038 C 3.2037539062500002 1.032 3.2187539062500004 1.029 3.22625390625 1.0274999999999999 C 3.22475390625 1.026 3.2352539062500005 1.023 3.2352539062500005 1.0215 C 3.2352539062500005 1.0185 3.2367539062500006 1.0185 3.2382539062500006 1.0185 C 3.24875390625 1.017 3.25025390625 1.014 3.2562539062500004 1.014 C 3.2547539062500004 1.014 3.2607539062500006 1.0125 3.2622539062500002 1.0125 L 3.2592539062500006 1.008 C 3.2667539062500004 1.008 3.2697539062500005 1.005 3.2787539062500004 1.005 C 3.2787539062500004 1.0005 3.2862539062500002 1.002 3.2862539062500002 1.0005 C 3.2862539062500002 1.0005 3.2847539062500006 0.999 3.2817539062500005 0.9974999999999999 C 3.2877539062500003 0.9974999999999999 3.2907539062500004 0.996 3.2937539062500005 0.996 C 3.2817539062500005 0.993 3.2697539062500005 0.993 3.2577539062500005 0.993 C 3.2367539062500006 0.993 3.2157539062500002 0.9944999999999999 3.1992539062500005 0.996 C 3.1437539062500006 0.999 3.0897539062500003 1.0065 3.0237539062500005 1.008 C 2.9952539062500003 1.008 2.9637539062500005 1.0035 2.9622539062500004 0.9704999999999999 L 2.9622539062500004 0.957 C 2.9622539062500004 0.8294999999999999 3.0192539062500003 0.5985 3.0537539062500003 0.46799999999999997 C 3.0747539062500002 0.366 3.1107539062500003 0.26549999999999996 3.13175390625 0.15749999999999997 C 3.1347539062500003 0.14249999999999996 3.1437539062500006 0.11549999999999994 3.1437539062500006 0.09149999999999991 C 3.1437539062500006 0.07199999999999984 3.1377539062500004 0.05549999999999988 3.1152539062500004 0.050999999999999934 C 3.1107539062500003 0.04949999999999988 3.10925390625 0.04949999999999988 3.10925390625 0.046499999999999986 C 3.1017539062500004 0.046499999999999986 3.0987539062500002 0.04349999999999987 3.0957539062500006 0.04200000000000004 L 3.0897539062500003 0.04200000000000004 C 3.0822539062500005 0.04200000000000004 3.0762539062500003 0.03749999999999987 3.0717539062500006 0.03749999999999987 C 3.0657539062500003 0.03749999999999987 3.06275390625 0.03749999999999987 3.0597539062500005 0.03600000000000003 C 3.0582539062500005 0.03749999999999987 3.0552539062500004 0.038999999999999924 3.0522539062500003 0.038999999999999924 C 3.0447539062500004 0.038999999999999924 3.0357539062500005 0.03299999999999992 3.0297539062500003 0.03149999999999986 L 2.99225390625 0.03149999999999986 C 2.9847539062500004 0.03149999999999986 2.98025390625 0.03600000000000003 2.9757539062500005 0.03600000000000003 C 2.96825390625 0.03749999999999987 2.9622539062500004 0.04200000000000004 2.9532539062500005 0.04200000000000004 C 2.9517539062500004 0.04349999999999987 2.9502539062500004 0.04349999999999987 2.9487539062500003 0.04349999999999987 C 2.9382539062500004 0.04349999999999987 2.9052539062500005 0.04949999999999988 2.89775390625 0.05549999999999988 C 2.8917539062500004 0.0645 2.8797539062500004 0.0734999999999999 2.87375390625 0.08549999999999991 C 2.8197539062500003 0.1875 2.7312539062500005 0.645 2.7312539062500005 0.846 C 2.7312539062500005 0.858 2.7327539062500006 0.87 2.7327539062500006 0.8805 C 2.7327539062500006 0.885 2.7297539062500005 0.8879999999999999 2.7297539062500005 0.891 C 2.7312539062500005 0.9225 2.7282539062500004 0.954 2.7402539062500004 0.99 C 2.7492539062500003 1.0394999999999999 2.8182539062500003 1.0875 2.8677539062500004 1.095 C 2.8767539062500003 1.095 2.9142539062500004 1.0995 2.9517539062500004 1.0995 C 3.0177539062500003 1.0995 3.10775390625 1.086 3.1662539062500006 1.053 C 3.1692539062500003 1.0514999999999999 3.1767539062500005 1.05 3.1812539062500003 1.05 C 3.1812539062500003 1.05 3.1842539062500004 1.05 3.1842539062500004 1.0454999999999999 C 3.1872539062500005 1.0454999999999999 3.1872539062500005 1.047 3.1887539062500005 1.047 C 3.1902539062500006 1.044 3.1947539062500003 1.0425 3.1947539062500003 1.0394999999999999 Z M 3.4886821289062504 0.05549999999999988 C 3.4346821289062506 0.05549999999999988 3.3851821289062505 0.06599999999999984 3.3476821289062504 0.08399999999999985 C 3.3251821289062504 0.09299999999999997 3.2966821289062507 0.09749999999999992 3.2906821289062504 0.12449999999999994 C 3.2906821289062504 0.1379999999999999 3.3161821289062505 0.13949999999999996 3.3266821289062505 0.14249999999999996 C 3.3476821289062504 0.1439999999999999 3.3701821289062504 0.1469999999999999 3.3896821289062506 0.1469999999999999 C 3.3896821289062506 0.1469999999999999 3.3836821289062504 0.1875 3.3821821289062504 0.20699999999999996 C 3.3596821289062504 0.4215 3.2996821289062503 0.735 3.2936821289062506 0.9329999999999999 C 3.2936821289062506 0.9435 3.2906821289062504 0.9524999999999999 3.2906821289062504 0.963 L 3.2906821289062504 0.969 L 3.2966821289062507 0.9524999999999999 C 3.2981821289062503 0.9555 3.2996821289062503 0.96 3.2996821289062503 0.963 C 3.2996821289062503 0.9704999999999999 3.2966821289062507 0.9764999999999999 3.2966821289062507 0.984 C 3.2951821289062506 0.99 3.2936821289062506 0.99 3.2936821289062506 0.99 C 3.2921821289062505 0.99 3.2921821289062505 0.9884999999999999 3.2921821289062505 0.9854999999999999 L 3.2921821289062505 0.9794999999999999 C 3.2906821289062504 0.9824999999999999 3.2906821289062504 0.99 3.2906821289062504 0.9914999999999999 C 3.2921821289062505 1.0065 3.2996821289062503 1.02 3.2996821289062503 1.0334999999999999 L 3.2996821289062503 1.038 C 3.2996821289062503 1.044 3.3086821289062507 1.0605 3.3131821289062504 1.0635 C 3.3116821289062504 1.065 3.3116821289062504 1.068 3.3116821289062504 1.0695 C 3.3116821289062504 1.0725 3.3131821289062504 1.0755 3.3131821289062504 1.0785 C 3.3161821289062505 1.083 3.3176821289062506 1.089 3.3221821289062503 1.089 C 3.3236821289062504 1.089 3.3266821289062505 1.0875 3.3311821289062507 1.086 C 3.3326821289062507 1.089 3.3341821289062503 1.0905 3.3341821289062503 1.0905 C 3.3341821289062503 1.089 3.3326821289062507 1.086 3.3311821289062507 1.0845 L 3.3311821289062507 1.0785 C 3.3326821289062507 1.0815 3.3356821289062504 1.083 3.3386821289062505 1.083 C 3.3386821289062505 1.0785 3.3356821289062504 1.074 3.3356821289062504 1.071 C 3.3431821289062507 1.074 3.3431821289062507 1.0845 3.3461821289062503 1.0935 C 3.3461821289062503 1.083 3.3476821289062504 1.077 3.3491821289062504 1.077 C 3.3506821289062505 1.077 3.3506821289062505 1.0815 3.3506821289062505 1.089 C 3.3521821289062506 1.0875 3.3536821289062506 1.086 3.3551821289062507 1.086 C 3.3581821289062503 1.086 3.3596821289062504 1.089 3.3626821289062505 1.0935 L 3.3626821289062505 1.077 C 3.3656821289062506 1.0785 3.3656821289062506 1.086 3.3656821289062506 1.089 C 3.3671821289062507 1.089 3.3686821289062503 1.0875 3.3686821289062503 1.086 C 3.3686821289062503 1.083 3.3671821289062507 1.0815 3.3671821289062507 1.0815 L 3.3731821289062505 1.0785 C 3.3731821289062505 1.0785 3.3731821289062505 1.074 3.3746821289062505 1.0725 C 3.3791821289062507 1.0845 3.3776821289062506 1.0875 3.3836821289062504 1.0875 L 3.3836821289062504 1.083 C 3.3851821289062505 1.0845 3.3851821289062505 1.0919999999999999 3.3881821289062506 1.0919999999999999 L 3.3881821289062506 1.0845 C 3.3926821289062503 1.0845 3.3956821289062504 1.0905 3.3986821289062505 1.0935 C 3.3971821289062505 1.089 3.3956821289062504 1.0815 3.3941821289062504 1.08 C 3.4001821289062506 1.08 3.4301821289062504 1.0815 3.4301821289062504 1.089 C 3.4301821289062504 1.0875 3.4331821289062505 1.086 3.4346821289062506 1.086 C 3.4361821289062506 1.086 3.4376821289062507 1.0875 3.4376821289062507 1.089 C 3.4436821289062505 1.0905 3.4886821289062504 1.0905 3.4946821289062506 1.0905 C 3.4931821289062506 1.089 3.4886821289062504 1.0845 3.4886821289062504 1.0815 C 3.4886821289062504 1.08 3.4901821289062505 1.0785 3.4931821289062506 1.077 L 3.4961821289062507 1.083 C 3.5006821289062504 1.083 3.4991821289062504 1.0875 3.5021821289062505 1.0875 C 3.5006821289062504 1.0785 3.5006821289062504 1.074 3.5006821289062504 1.0574999999999999 C 3.5081821289062507 1.068 3.5036821289062505 1.077 3.5096821289062508 1.0845 L 3.5111821289062504 1.0725 C 3.5126821289062504 1.077 3.5111821289062504 1.0845 3.5141821289062505 1.089 L 3.5141821289062505 1.0815 C 3.5141821289062505 1.065 3.5171821289062506 1.0365 3.5171821289062506 1.017 C 3.6626821289062503 0.9884999999999999 3.7541821289062502 0.876 3.8141821289062507 0.7454999999999999 C 3.8156821289062504 0.735 3.8216821289062506 0.7275 3.8246821289062503 0.72 C 3.8291821289062504 0.711 3.8306821289062505 0.699 3.8336821289062506 0.6884999999999999 C 3.8396821289062504 0.6779999999999999 3.8411821289062504 0.6705 3.8411821289062504 0.6659999999999999 L 3.8411821289062504 0.6585 C 3.8411821289062504 0.651 3.8456821289062506 0.6465 3.8471821289062507 0.6419999999999999 C 3.8471821289062507 0.6375 3.8486821289062503 0.6315 3.8486821289062503 0.627 C 3.8546821289062505 0.591 3.8576821289062506 0.5519999999999999 3.8576821289062506 0.5129999999999999 C 3.8576821289062506 0.384 3.8246821289062503 0.237 3.7481821289062505 0.15599999999999992 C 3.6926821289062506 0.08699999999999997 3.5846821289062505 0.05549999999999988 3.4886821289062504 0.05549999999999988 Z M 3.7361821289062505 0.48149999999999993 C 3.7361821289062505 0.6405 3.6611821289062503 0.7845 3.5276821289062505 0.8744999999999999 C 3.5351821289062504 0.8145 3.5426821289062507 0.7605 3.5546821289062507 0.7064999999999999 C 3.5816821289062504 0.5804999999999999 3.5951821289062504 0.4544999999999999 3.6161821289062503 0.3314999999999999 C 3.6236821289062506 0.2909999999999999 3.6341821289062506 0.24149999999999994 3.6341821289062506 0.20399999999999996 L 3.6386821289062503 0.1994999999999999 C 3.7031821289062505 0.249 3.7361821289062505 0.36749999999999994 3.7361821289062505 0.48149999999999993 Z M 3.3416821289062506 0.9345 C 3.3416821289062506 0.9375 3.3371821289062504 0.9464999999999999 3.3371821289062504 0.9464999999999999 L 3.3371821289062504 0.9375 C 3.3371821289062504 0.9285 3.3386821289062505 0.87 3.3416821289062506 0.8654999999999999 C 3.3431821289062507 0.861 3.3431821289062507 0.855 3.3461821289062503 0.849 C 3.3446821289062507 0.849 3.3416821289062506 0.8504999999999999 3.3416821289062506 0.8504999999999999 L 3.3461821289062503 0.846 C 3.3446821289062507 0.8445 3.3446821289062507 0.843 3.3446821289062507 0.8414999999999999 C 3.3446821289062507 0.837 3.3491821289062504 0.8325 3.3506821289062505 0.828 C 3.3521821289062506 0.828 3.3536821289062506 0.831 3.3536821289062506 0.8354999999999999 C 3.3536821289062506 0.8504999999999999 3.3446821289062507 0.8805 3.3431821289062507 0.8865 L 3.3431821289062507 0.9299999999999999 C 3.3431821289062507 0.9329999999999999 3.3416821289062506 0.9345 3.3416821289062506 0.9345 Z M 3.3251821289062504 0.9179999999999999 C 3.3251821289062504 0.9195 3.3236821289062504 0.9524999999999999 3.3176821289062506 0.951 L 3.3176821289062506 0.9359999999999999 C 3.3176821289062506 0.9329999999999999 3.3191821289062506 0.9285 3.3191821289062506 0.9269999999999999 C 3.3191821289062506 0.9225 3.3176821289062506 0.9195 3.3146821289062505 0.9195 C 3.3176821289062506 0.9119999999999999 3.3206821289062507 0.9045 3.3221821289062503 0.897 L 3.3221821289062503 0.9015 C 3.3221821289062503 0.903 3.3221821289062503 0.9045 3.3236821289062504 0.9059999999999999 C 3.3251821289062504 0.8999999999999999 3.3266821289062505 0.8985 3.3266821289062505 0.8955 C 3.3311821289062507 0.891 3.3311821289062507 0.8879999999999999 3.3311821289062507 0.885 C 3.3311821289062507 0.8819999999999999 3.3311821289062507 0.876 3.3296821289062506 0.873 C 3.3311821289062507 0.8684999999999999 3.3341821289062503 0.8654999999999999 3.3341821289062503 0.8624999999999999 C 3.3356821289062504 0.8654999999999999 3.3371821289062504 0.87 3.3371821289062504 0.8744999999999999 C 3.3371821289062504 0.891 3.3296821289062506 0.9179999999999999 3.3281821289062505 0.9269999999999999 C 3.3266821289062505 0.9225 3.3251821289062504 0.9149999999999999 3.3251821289062504 0.9179999999999999 Z M 3.3311821289062507 0.8294999999999999 C 3.3326821289062507 0.8294999999999999 3.3356821289062504 0.8114999999999999 3.3371821289062504 0.8085 C 3.3371821289062504 0.813 3.3386821289062505 0.816 3.3386821289062505 0.8174999999999999 C 3.3386821289062505 0.8099999999999999 3.3401821289062505 0.8099999999999999 3.3401821289062505 0.8085 C 3.3386821289062505 0.8069999999999999 3.3386821289062505 0.8054999999999999 3.3386821289062505 0.8025 C 3.3386821289062505 0.798 3.3401821289062505 0.7965 3.3416821289062506 0.7965 L 3.3416821289062506 0.8085 C 3.3416821289062506 0.822 3.3386821289062505 0.8385 3.3371821289062504 0.849 C 3.3356821289062504 0.8504999999999999 3.3356821289062504 0.852 3.3356821289062504 0.852 C 3.3356821289062504 0.8474999999999999 3.3356821289062504 0.84 3.3371821289062504 0.8354999999999999 C 3.3326821289062507 0.8354999999999999 3.3326821289062507 0.8385 3.3326821289062507 0.8414999999999999 C 3.3326821289062507 0.8445 3.3326821289062507 0.8474999999999999 3.3341821289062503 0.849 C 3.3281821289062505 0.855 3.3221821289062503 0.8714999999999999 3.3206821289062507 0.8805 L 3.3251821289062504 0.843 C 3.3236821289062504 0.849 3.3236821289062504 0.8534999999999999 3.3191821289062506 0.858 L 3.3326821289062507 0.8085 C 3.3326821289062507 0.816 3.3311821289062507 0.8234999999999999 3.3311821289062507 0.8294999999999999 Z M 3.3701821289062504 0.9209999999999999 C 3.3686821289062503 0.9225 3.3581821289062503 0.9269999999999999 3.3581821289062503 0.9285 C 3.3551821289062507 0.9285 3.3551821289062507 0.9255 3.3551821289062507 0.9255 C 3.3551821289062507 0.9255 3.3536821289062506 0.9255 3.3521821289062506 0.9269999999999999 L 3.3536821289062506 0.9209999999999999 C 3.3551821289062507 0.9209999999999999 3.3566821289062503 0.9225 3.3566821289062503 0.9239999999999999 L 3.3566821289062503 0.9195 C 3.3596821289062504 0.9179999999999999 3.3611821289062505 0.9149999999999999 3.3611821289062505 0.9119999999999999 C 3.3611821289062505 0.9105 3.3596821289062504 0.909 3.3581821289062503 0.909 C 3.3596821289062504 0.9075 3.3611821289062505 0.9059999999999999 3.3611821289062505 0.903 C 3.3611821289062505 0.9015 3.3596821289062504 0.8999999999999999 3.3596821289062504 0.897 L 3.3626821289062505 0.903 C 3.3641821289062506 0.9015 3.3656821289062506 0.8879999999999999 3.3656821289062506 0.8819999999999999 C 3.3656821289062506 0.879 3.3671821289062507 0.873 3.3686821289062503 0.8684999999999999 C 3.3686821289062503 0.8805 3.3716821289062504 0.8865 3.3716821289062504 0.8879999999999999 C 3.3716821289062504 0.8925 3.3701821289062504 0.8955 3.3686821289062503 0.897 C 3.3686821289062503 0.8999999999999999 3.3701821289062504 0.9015 3.3701821289062504 0.9015 C 3.3716821289062504 0.9015 3.3731821289062505 0.8955 3.3761821289062506 0.8939999999999999 L 3.3761821289062506 0.87 C 3.3761821289062506 0.87 3.3776821289062506 0.873 3.3776821289062506 0.879 C 3.3776821289062506 0.891 3.3746821289062505 0.9119999999999999 3.3701821289062504 0.9209999999999999 Z M 3.3491821289062504 0.7709999999999999 C 3.3476821289062504 0.7709999999999999 3.3476821289062504 0.7665 3.3476821289062504 0.7665 C 3.3476821289062504 0.7665 3.3461821289062503 0.768 3.3461821289062503 0.7709999999999999 C 3.3431821289062507 0.7709999999999999 3.3416821289062506 0.7695 3.3416821289062506 0.7695 C 3.3416821289062506 0.768 3.3431821289062507 0.7589999999999999 3.3476821289062504 0.756 L 3.3476821289062504 0.762 C 3.3476821289062504 0.7635 3.3476821289062504 0.7665 3.3491821289062504 0.7665 C 3.3506821289062505 0.7665 3.3491821289062504 0.768 3.3491821289062504 0.7709999999999999 Z M 3.3131821289062504 0.978 C 3.3131821289062504 0.9734999999999999 3.3161821289062505 0.966 3.3161821289062505 0.963 C 3.3176821289062506 0.963 3.3176821289062506 0.9824999999999999 3.3176821289062506 0.984 C 3.3146821289062505 0.984 3.3131821289062504 0.981 3.3131821289062504 0.978 Z M 3.3206821289062507 0.8325 C 3.3206821289062507 0.828 3.3191821289062506 0.825 3.3191821289062506 0.8234999999999999 C 3.3191821289062506 0.822 3.3206821289062507 0.8205 3.3251821289062504 0.8205 C 3.3251821289062504 0.8265 3.3221821289062503 0.8294999999999999 3.3206821289062507 0.8325 Z M 3.3371821289062504 0.7605 C 3.3371821289062504 0.7575 3.3386821289062505 0.7529999999999999 3.3416821289062506 0.7515 C 3.3416821289062506 0.7589999999999999 3.3386821289062505 0.762 3.3386821289062505 0.7665 C 3.3371821289062504 0.7649999999999999 3.3371821289062504 0.762 3.3371821289062504 0.7605 Z M 3.3566821289062503 0.9854999999999999 C 3.3566821289062503 0.984 3.3581821289062503 0.9824999999999999 3.3596821289062504 0.9824999999999999 C 3.3596821289062504 0.9854999999999999 3.3596821289062504 0.99 3.3581821289062503 0.9914999999999999 C 3.3581821289062503 0.99 3.3566821289062503 0.987 3.3566821289062503 0.9854999999999999 Z M 5.027652832031251 0.12149999999999994 C 5.011152832031251 0.12149999999999994 4.976652832031251 0.0645 4.964652832031251 0.05699999999999994 C 4.964652832031251 0.05699999999999994 4.963152832031251 0.06149999999999989 4.961652832031251 0.06149999999999989 C 4.961652832031251 0.06149999999999989 4.960152832031251 0.06000000000000005 4.960152832031251 0.05699999999999994 L 4.955652832031251 0.05699999999999994 C 4.9481528320312504 0.05699999999999994 4.940652832031251 0.058499999999999996 4.940652832031251 0.08399999999999985 C 4.865652832031251 0.2865 4.834152832031251 0.5265 4.78015283203125 0.8265 C 4.778652832031251 0.834 4.777152832031251 0.8385 4.771152832031251 0.849 C 4.765152832031251 0.8414999999999999 4.7621528320312505 0.828 4.75915283203125 0.816 C 4.73665283203125 0.7064999999999999 4.724652832031251 0.37049999999999994 4.682652832031251 0.3015 C 4.682652832031251 0.3015 4.675152832031251 0.2925 4.675152832031251 0.2865 L 4.6691528320312505 0.27749999999999997 C 4.627152832031251 0.20399999999999996 4.561152832031251 0.09449999999999992 4.47865283203125 0.09449999999999992 C 4.450152832031251 0.09449999999999992 4.420152832031251 0.10799999999999998 4.388652832031251 0.1379999999999999 C 4.259652832031251 0.2879999999999999 4.201152832031251 0.5399999999999999 4.201152832031251 0.7785 C 4.201152832031251 0.8265 4.204152832031251 0.8744999999999999 4.208652832031251 0.9209999999999999 C 4.214652832031251 0.9285 4.214652832031251 0.9405 4.21915283203125 0.9495 L 4.225152832031251 0.9495 C 4.235652832031251 0.9555 4.24165283203125 0.9615 4.2461528320312505 0.9615 C 4.2476528320312505 0.9615 4.256652832031251 0.969 4.262652832031251 0.969 L 4.2701528320312505 0.9794999999999999 L 4.274652832031251 0.978 C 4.280652832031251 0.984 4.288152832031251 0.9974999999999999 4.2941528320312505 1.0065 C 4.298652832031251 1.011 4.298652832031251 1.026 4.306152832031251 1.035 C 4.310652832031251 1.0394999999999999 4.3166528320312505 1.0574999999999999 4.327152832031251 1.0574999999999999 C 4.342152832031251 1.047 4.346652832031251 1.011 4.352652832031251 0.9854999999999999 C 4.378152832031251 0.7409999999999999 4.40815283203125 0.4365 4.522152832031251 0.22499999999999998 C 4.537152832031251 0.24449999999999994 4.535652832031251 0.2955 4.541652832031251 0.32699999999999996 C 4.558152832031251 0.486 4.583652832031251 0.9345 4.670652832031251 1.065 C 4.6931528320312506 1.0845 4.726152832031251 1.095 4.757652832031251 1.095 C 4.8101528320312505 1.095 4.862652832031251 1.0665 4.8791528320312505 0.9974999999999999 C 4.9481528320312504 0.6915 4.976652832031251 0.42299999999999993 5.024652832031251 0.20399999999999996 C 5.033652832031251 0.20399999999999996 5.038152832031251 0.13049999999999995 5.038152832031251 0.11549999999999994 L 5.033652832031251 0.11699999999999999 C 5.032152832031251 0.12 5.030652832031251 0.12149999999999994 5.027652832031251 0.12149999999999994 Z M 4.427652832031251 0.33899999999999997 C 4.423152832031251 0.34199999999999997 4.421652832031251 0.345 4.421652832031251 0.3494999999999999 C 4.424652832031251 0.348 4.424652832031251 0.3494999999999999 4.427652832031251 0.3434999999999999 C 4.427652832031251 0.36449999999999994 4.4096528320312505 0.40049999999999997 4.402152832031251 0.4245 C 4.399152832031251 0.42299999999999993 4.399152832031251 0.41999999999999993 4.399152832031251 0.4185 C 4.399152832031251 0.4125 4.40815283203125 0.4065 4.40815283203125 0.4019999999999999 C 4.40815283203125 0.40049999999999997 4.40665283203125 0.3989999999999999 4.40515283203125 0.3989999999999999 C 4.40515283203125 0.38249999999999995 4.4111528320312505 0.36149999999999993 4.417152832031251 0.36149999999999993 C 4.417152832031251 0.366 4.412652832031251 0.37349999999999994 4.412652832031251 0.378 C 4.417152832031251 0.378 4.412652832031251 0.369 4.418652832031251 0.366 C 4.418652832031251 0.33899999999999997 4.43215283203125 0.3195 4.438152832031251 0.2985 C 4.436652832031251 0.29699999999999993 4.436652832031251 0.2955 4.436652832031251 0.29399999999999993 C 4.436652832031251 0.2879999999999999 4.442652832031251 0.28049999999999997 4.447152832031251 0.28049999999999997 C 4.445652832031251 0.28049999999999997 4.444152832031251 0.2789999999999999 4.444152832031251 0.27749999999999997 C 4.444152832031251 0.2759999999999999 4.444152832031251 0.2729999999999999 4.445652832031251 0.27149999999999996 C 4.444152832031251 0.27149999999999996 4.444152832031251 0.2729999999999999 4.444152832031251 0.27149999999999996 C 4.444152832031251 0.26849999999999996 4.442652832031251 0.2669999999999999 4.442652832031251 0.26549999999999996 C 4.445652832031251 0.26549999999999996 4.445652832031251 0.2669999999999999 4.447152832031251 0.2669999999999999 C 4.447152832031251 0.26549999999999996 4.448652832031251 0.2639999999999999 4.450152832031251 0.26249999999999996 L 4.450152832031251 0.25649999999999995 C 4.45315283203125 0.249 4.4576528320312505 0.243 4.460652832031251 0.23249999999999993 C 4.460652832031251 0.23549999999999993 4.460652832031251 0.23849999999999993 4.459152832031251 0.24 C 4.462152832031251 0.23249999999999993 4.469652832031251 0.22499999999999998 4.469652832031251 0.22499999999999998 C 4.469652832031251 0.22349999999999992 4.493652832031251 0.1785 4.50265283203125 0.17699999999999994 C 4.50265283203125 0.1815 4.498152832031251 0.1815 4.498152832031251 0.1875 C 4.498152832031251 0.1875 4.496652832031251 0.2024999999999999 4.492152832031251 0.20699999999999996 C 4.492152832031251 0.2054999999999999 4.493652832031251 0.2054999999999999 4.493652832031251 0.2024999999999999 C 4.493652832031251 0.2024999999999999 4.492152832031251 0.2054999999999999 4.487652832031251 0.20699999999999996 C 4.487652832031251 0.2084999999999999 4.489152832031251 0.2114999999999999 4.489152832031251 0.21299999999999997 C 4.489152832031251 0.2144999999999999 4.487652832031251 0.21599999999999997 4.486152832031251 0.21599999999999997 L 4.487652832031251 0.20999999999999996 C 4.484652832031251 0.21299999999999997 4.4801528320312505 0.22799999999999998 4.475652832031251 0.23099999999999998 C 4.47715283203125 0.23249999999999993 4.47715283203125 0.23399999999999999 4.47715283203125 0.23549999999999993 C 4.47715283203125 0.237 4.466652832031251 0.246 4.466652832031251 0.252 C 4.466652832031251 0.25349999999999995 4.468152832031251 0.255 4.468152832031251 0.25649999999999995 C 4.465152832031251 0.25649999999999995 4.460652832031251 0.2669999999999999 4.459152832031251 0.27149999999999996 C 4.4576528320312505 0.2789999999999999 4.45165283203125 0.2895 4.447152832031251 0.2985 C 4.447152832031251 0.29999999999999993 4.445652832031251 0.3015 4.445652832031251 0.30299999999999994 C 4.445652832031251 0.30599999999999994 4.450152832031251 0.29999999999999993 4.45465283203125 0.2895 L 4.45465283203125 0.2925 C 4.447152832031251 0.3105 4.438152832031251 0.32399999999999995 4.43065283203125 0.3434999999999999 C 4.43065283203125 0.34199999999999997 4.43065283203125 0.33899999999999997 4.427652832031251 0.33899999999999997 Z M 4.483152832031251 0.2819999999999999 C 4.4816528320312505 0.2849999999999999 4.47715283203125 0.29699999999999993 4.47715283203125 0.2985 C 4.47715283203125 0.2925 4.4801528320312505 0.2789999999999999 4.484652832031251 0.2729999999999999 C 4.484652832031251 0.2699999999999999 4.489152832031251 0.2639999999999999 4.489152832031251 0.25949999999999995 C 4.472652832031251 0.2879999999999999 4.468152832031251 0.30599999999999994 4.468152832031251 0.3075 C 4.469652832031251 0.30599999999999994 4.471152832031251 0.30599999999999994 4.472652832031251 0.30599999999999994 C 4.4576528320312505 0.348 4.448652832031251 0.37649999999999995 4.4351528320312505 0.4079999999999999 C 4.4351528320312505 0.39449999999999996 4.444152832031251 0.3869999999999999 4.444152832031251 0.375 C 4.444152832031251 0.375 4.439652832031251 0.375 4.439652832031251 0.378 C 4.439652832031251 0.37949999999999995 4.438152832031251 0.4065 4.427652832031251 0.4065 C 4.429152832031251 0.3929999999999999 4.43065283203125 0.36 4.438152832031251 0.3524999999999999 C 4.438152832031251 0.3554999999999999 4.439652832031251 0.3554999999999999 4.439652832031251 0.3554999999999999 C 4.438152832031251 0.354 4.438152832031251 0.351 4.438152832031251 0.3494999999999999 C 4.442652832031251 0.3434999999999999 4.442652832031251 0.34199999999999997 4.442652832031251 0.33599999999999997 C 4.448652832031251 0.33599999999999997 4.450152832031251 0.33299999999999996 4.450152832031251 0.32699999999999996 C 4.450152832031251 0.32999999999999996 4.45165283203125 0.32999999999999996 4.45315283203125 0.32999999999999996 C 4.45465283203125 0.32999999999999996 4.4576528320312505 0.3284999999999999 4.4576528320312505 0.3284999999999999 C 4.462152832031251 0.33299999999999996 4.466652832031251 0.2819999999999999 4.475652832031251 0.2819999999999999 C 4.475652832031251 0.28049999999999997 4.474152832031251 0.2789999999999999 4.474152832031251 0.27749999999999997 C 4.475652832031251 0.2759999999999999 4.471152832031251 0.2759999999999999 4.469652832031251 0.2759999999999999 C 4.468152832031251 0.2759999999999999 4.475652832031251 0.2699999999999999 4.47715283203125 0.26549999999999996 C 4.47715283203125 0.26849999999999996 4.475652832031251 0.27149999999999996 4.475652832031251 0.27449999999999997 C 4.486152832031251 0.25649999999999995 4.493652832031251 0.23099999999999998 4.5056528320312506 0.21299999999999997 C 4.510152832031251 0.21599999999999997 4.510152832031251 0.21899999999999997 4.510152832031251 0.22349999999999992 C 4.50265283203125 0.22949999999999993 4.484652832031251 0.2729999999999999 4.483152832031251 0.2819999999999999 Z M 4.466652832031251 0.20699999999999996 C 4.466652832031251 0.2084999999999999 4.468152832031251 0.2054999999999999 4.468152832031251 0.20399999999999996 C 4.468152832031251 0.2054999999999999 4.469652832031251 0.2084999999999999 4.469652832031251 0.2084999999999999 C 4.469652832031251 0.2114999999999999 4.468152832031251 0.2144999999999999 4.468152832031251 0.21749999999999992 C 4.471152832031251 0.2114999999999999 4.474152832031251 0.2054999999999999 4.475652832031251 0.1964999999999999 C 4.4816528320312505 0.1964999999999999 4.489152832031251 0.1785 4.49965283203125 0.16799999999999993 C 4.487652832031251 0.18599999999999994 4.472652832031251 0.2084999999999999 4.463652832031251 0.23099999999999998 C 4.463652832031251 0.22799999999999998 4.465152832031251 0.22499999999999998 4.465152832031251 0.22349999999999992 C 4.462152832031251 0.23099999999999998 4.45465283203125 0.23849999999999993 4.45165283203125 0.24149999999999994 C 4.45165283203125 0.24449999999999994 4.448652832031251 0.249 4.448652832031251 0.24749999999999994 C 4.448652832031251 0.24449999999999994 4.450152832031251 0.243 4.450152832031251 0.24149999999999994 C 4.450152832031251 0.243 4.4576528320312505 0.22049999999999992 4.466652832031251 0.20699999999999996 Z M 4.47715283203125 0.23099999999999998 L 4.486152832031251 0.21899999999999997 C 4.486152832031251 0.22199999999999998 4.4801528320312505 0.22799999999999998 4.4801528320312505 0.23099999999999998 C 4.484652832031251 0.23099999999999998 4.484652832031251 0.22799999999999998 4.486152832031251 0.22799999999999998 C 4.486152832031251 0.246 4.475652832031251 0.25649999999999995 4.466652832031251 0.2669999999999999 C 4.471152832031251 0.25649999999999995 4.47715283203125 0.24449999999999994 4.4801528320312505 0.23549999999999993 C 4.4801528320312505 0.23099999999999998 4.47715283203125 0.23099999999999998 4.47715283203125 0.23099999999999998 Z M 4.43065283203125 0.2819999999999999 C 4.43215283203125 0.2835 4.43215283203125 0.2849999999999999 4.43215283203125 0.2865 C 4.43215283203125 0.2955 4.421652832031251 0.31799999999999995 4.417152832031251 0.32399999999999995 C 4.417152832031251 0.3195 4.418652832031251 0.3135 4.418652832031251 0.3075 C 4.420152832031251 0.3075 4.427652832031251 0.2895 4.43065283203125 0.2819999999999999 Z M 4.729152832031251 0.7124999999999999 C 4.727652832031251 0.7035 4.726152832031251 0.7004999999999999 4.726152832031251 0.7004999999999999 C 4.726152832031251 0.699 4.724652832031251 0.6839999999999999 4.724652832031251 0.6839999999999999 C 4.724652832031251 0.6824999999999999 4.720152832031251 0.6645 4.720152832031251 0.6555 C 4.721652832031251 0.657 4.721652832031251 0.6585 4.721652832031251 0.6599999999999999 L 4.721652832031251 0.6539999999999999 C 4.721652832031251 0.6495 4.721652832031251 0.6465 4.720152832031251 0.6435 C 4.721652832031251 0.6435 4.721652832031251 0.6419999999999999 4.721652832031251 0.6359999999999999 L 4.730652832031251 0.717 C 4.730652832031251 0.7184999999999999 4.729152832031251 0.714 4.729152832031251 0.7124999999999999 Z M 4.7141528320312505 0.5804999999999999 C 4.7156528320312505 0.5894999999999999 4.718652832031251 0.6045 4.718652832031251 0.6164999999999999 L 4.718652832031251 0.6359999999999999 C 4.717152832031251 0.6359999999999999 4.717152832031251 0.6345 4.717152832031251 0.6315 C 4.7156528320312505 0.6285 4.7156528320312505 0.627 4.7156528320312505 0.6255 L 4.7156528320312505 0.6 C 4.7156528320312505 0.5925 4.7141528320312505 0.585 4.7141528320312505 0.5804999999999999 Z M 4.450152832031251 0.2819999999999999 C 4.444152832031251 0.29699999999999993 4.4351528320312505 0.30599999999999994 4.4351528320312505 0.3135 C 4.4351528320312505 0.3105 4.438152832031251 0.3075 4.442652832031251 0.3075 C 4.442652832031251 0.31199999999999994 4.450152832031251 0.2879999999999999 4.450152832031251 0.2819999999999999 Z M 4.448652832031251 0.31499999999999995 C 4.448652832031251 0.3075 4.45315283203125 0.29999999999999993 4.4576528320312505 0.2955 C 4.45465283203125 0.29999999999999993 4.45465283203125 0.30299999999999994 4.45315283203125 0.30599999999999994 C 4.45465283203125 0.30899999999999994 4.459152832031251 0.30599999999999994 4.459152832031251 0.3105 C 4.4576528320312505 0.3105 4.450152832031251 0.31799999999999995 4.450152832031251 0.3195 C 4.450152832031251 0.31799999999999995 4.448652832031251 0.3165 4.448652832031251 0.31499999999999995 Z M 4.445652832031251 0.25049999999999994 C 4.445652832031251 0.26249999999999996 4.436652832031251 0.27149999999999996 4.4336528320312505 0.28049999999999997 L 4.4351528320312505 0.27449999999999997 C 4.439652832031251 0.2669999999999999 4.441152832031251 0.2579999999999999 4.445652832031251 0.25049999999999994 Z M 4.460652832031251 0.2639999999999999 C 4.4576528320312505 0.2669999999999999 4.45465283203125 0.2699999999999999 4.45465283203125 0.2729999999999999 C 4.459152832031251 0.2729999999999999 4.460652832031251 0.2669999999999999 4.460652832031251 0.2639999999999999 Z M 4.459152832031251 0.25349999999999995 C 4.459152832031251 0.252 4.4576528320312505 0.25049999999999994 4.4576528320312505 0.249 L 4.4576528320312505 0.246 L 4.450152832031251 0.26249999999999996 C 4.45315283203125 0.25649999999999995 4.4576528320312505 0.252 4.459152832031251 0.25349999999999995 Z M 4.447152832031251 0.2669999999999999 C 4.445652832031251 0.26849999999999996 4.445652832031251 0.2699999999999999 4.445652832031251 0.27149999999999996 C 4.445652832031251 0.2699999999999999 4.445652832031251 0.2699999999999999 4.447152832031251 0.26849999999999996 Z M 4.459152832031251 0.2699999999999999 C 4.459152832031251 0.2699999999999999 4.459152832031251 0.27149999999999996 4.459152832031251 0.27149999999999996 Z M 5.678647705078125 0.15449999999999997 C 5.630647705078125 0.10949999999999993 5.501647705078126 0.09449999999999992 5.381647705078126 0.09449999999999992 C 5.342647705078125 0.09449999999999992 5.2811477050781255 0.09149999999999991 5.230147705078125 0.09149999999999991 L 5.206147705078125 0.09149999999999991 C 5.155147705078125 0.09449999999999992 5.092147705078125 0.10199999999999998 5.092147705078125 0.1349999999999999 C 5.0936477050781255 0.1499999999999999 5.105647705078125 0.16199999999999992 5.1176477050781255 0.16799999999999993 C 5.090647705078125 0.37349999999999994 5.065147705078125 0.5609999999999999 5.036647705078125 0.7515 C 5.035147705078125 0.792 5.020147705078125 0.8714999999999999 5.020147705078125 0.942 L 5.020147705078125 0.951 C 5.021647705078125 1.0185 5.036647705078125 1.0725 5.090647705078125 1.0755 C 5.0951477050781255 1.071 5.0951477050781255 1.0605 5.101147705078126 1.0545 C 5.126647705078126 1.0725 5.159647705078125 1.077 5.195647705078126 1.077 L 5.209147705078125 1.077 C 5.252647705078125 1.0755 5.416147705078125 1.0514999999999999 5.416147705078125 1.0485 C 5.461147705078125 1.0394999999999999 5.405647705078126 1.029 5.488147705078125 1.026 C 5.488147705078125 1.0125 5.524147705078126 1.0185 5.524147705078126 1.0125 L 5.531647705078125 1.0125 C 5.528647705078125 1.011 5.527147705078125 1.011 5.525647705078125 1.011 C 5.524147705078126 1.011 5.522647705078126 1.011 5.521147705078126 1.0095 L 5.527147705078125 1.0095 C 5.525647705078125 1.008 5.534647705078125 1.008 5.542147705078126 1.008 C 5.549647705078126 1.008 5.557147705078125 1.008 5.557147705078125 1.005 C 5.557147705078125 1.005 5.551147705078126 1.0035 5.5406477050781255 1.002 C 5.543647705078126 1.002 5.545147705078126 1.0005 5.546647705078126 0.9974999999999999 L 5.533147705078125 0.9974999999999999 C 5.536147705078125 0.9944999999999999 5.542147705078126 0.996 5.546647705078126 0.993 C 5.551147705078126 0.993 5.555647705078125 0.9944999999999999 5.560147705078125 0.9944999999999999 C 5.5631477050781255 0.9944999999999999 5.566147705078126 0.9944999999999999 5.567647705078126 0.993 C 5.554147705078125 0.9794999999999999 5.537647705078125 0.9764999999999999 5.5151477050781255 0.9764999999999999 L 5.495647705078126 0.9764999999999999 C 5.485147705078125 0.9764999999999999 5.473147705078126 0.9764999999999999 5.461147705078125 0.978 C 5.441647705078125 0.975 5.425147705078126 0.972 5.408647705078126 0.972 L 5.3276477050781255 0.978 L 5.308147705078126 0.978 C 5.290147705078126 0.978 5.273647705078125 0.9764999999999999 5.2586477050781255 0.975 C 5.2571477050781255 0.9644999999999999 5.2571477050781255 0.9524999999999999 5.2571477050781255 0.942 L 5.2571477050781255 0.9195 C 5.2571477050781255 0.834 5.272147705078125 0.7589999999999999 5.2811477050781255 0.6719999999999999 C 5.369647705078125 0.669 5.425147705078126 0.6615 5.480647705078125 0.6585 C 5.506147705078125 0.657 5.513647705078125 0.657 5.5151477050781255 0.657 C 5.5151477050781255 0.657 5.512147705078125 0.6539999999999999 5.509147705078125 0.6525 C 5.5166477050781255 0.6539999999999999 5.527147705078125 0.6555 5.536147705078125 0.6555 L 5.545147705078126 0.6525 L 5.543647705078126 0.651 C 5.552647705078125 0.651 5.569147705078126 0.6495 5.569147705078126 0.6419999999999999 C 5.576647705078125 0.6405 5.575147705078125 0.639 5.602147705078125 0.6315 C 5.546647705078126 0.594 5.4686477050781255 0.5864999999999999 5.404147705078126 0.5864999999999999 C 5.359147705078126 0.5864999999999999 5.320147705078125 0.5894999999999999 5.293147705078125 0.591 L 5.354647705078126 0.19199999999999995 C 5.402647705078126 0.1905 5.575147705078125 0.17999999999999994 5.5871477050781255 0.1785 C 5.584147705078125 0.1785 5.581147705078125 0.17699999999999994 5.579647705078125 0.1755 C 5.581147705078125 0.1755 5.605147705078125 0.17699999999999994 5.618647705078125 0.17699999999999994 C 5.618647705078125 0.1755 5.608147705078125 0.17399999999999993 5.603647705078125 0.16949999999999998 C 5.6096477050781255 0.16949999999999998 5.618647705078125 0.1725 5.624647705078125 0.1725 C 5.627647705078125 0.1725 5.629147705078125 0.1725 5.630647705078125 0.17099999999999993 C 5.630647705078125 0.17099999999999993 5.629147705078125 0.16949999999999998 5.626147705078125 0.16799999999999993 L 5.6336477050781255 0.16799999999999993 C 5.6336477050781255 0.16649999999999998 5.635147705078126 0.16499999999999992 5.636647705078126 0.16499999999999992 C 5.638147705078126 0.16499999999999992 5.641147705078126 0.16799999999999993 5.642647705078126 0.16799999999999993 C 5.642647705078126 0.16799999999999993 5.647147705078125 0.16499999999999992 5.647147705078125 0.16349999999999998 C 5.639647705078126 0.16349999999999998 5.6321477050781255 0.16049999999999998 5.624647705078125 0.15749999999999997 C 5.624647705078125 0.15599999999999992 5.627647705078125 0.15599999999999992 5.629147705078125 0.15599999999999992 L 5.642647705078126 0.15599999999999992 C 5.648647705078125 0.15599999999999992 5.650147705078125 0.15449999999999997 5.650147705078125 0.15149999999999997 C 5.651647705078125 0.15149999999999997 5.668147705078125 0.15449999999999997 5.678647705078125 0.15449999999999997 Z M 5.659147705078126 0.16349999999999998 C 5.654647705078125 0.15899999999999992 5.653147705078125 0.15899999999999992 5.651647705078125 0.15899999999999992 C 5.653147705078125 0.16349999999999998 5.6561477050781255 0.16349999999999998 5.659147705078126 0.16349999999999998 Z M 6.90407080078125 0.09149999999999991 C 6.869570800781251 0.09149999999999991 6.82607080078125 0.16049999999999998 6.82607080078125 0.1815 C 6.75557080078125 0.27449999999999997 6.66707080078125 0.963 6.56807080078125 0.963 C 6.55307080078125 0.963 6.55157080078125 0.8835 6.55157080078125 0.846 C 6.55157080078125 0.693 6.55757080078125 0.5549999999999999 6.5620708007812505 0.4185 C 6.55607080078125 0.31199999999999994 6.57407080078125 0.16799999999999993 6.50057080078125 0.08850000000000002 C 6.494570800781251 0.0645 6.45557080078125 0.05400000000000005 6.41807080078125 0.05400000000000005 C 6.35807080078125 0.05400000000000005 6.26357080078125 0.0674999999999999 6.24107080078125 0.11399999999999999 C 6.119570800781251 0.31799999999999995 6.09407080078125 0.49049999999999994 6.01607080078125 0.7124999999999999 C 5.99057080078125 0.7829999999999999 5.95757080078125 0.9165 5.93807080078125 0.9299999999999999 C 5.91707080078125 0.8474999999999999 5.91407080078125 0.7649999999999999 5.91407080078125 0.6824999999999999 L 5.91407080078125 0.5834999999999999 C 5.91407080078125 0.44999999999999996 5.92757080078125 0.24449999999999994 5.94407080078125 0.20399999999999996 C 5.94857080078125 0.18599999999999994 5.96057080078125 0.16499999999999992 5.96057080078125 0.1469999999999999 C 5.96057080078125 0.06599999999999984 5.85257080078125 0.050999999999999934 5.80907080078125 0.050999999999999934 C 5.7430708007812505 0.050999999999999934 5.68907080078125 0.08699999999999997 5.67707080078125 0.15599999999999992 C 5.65457080078125 0.2759999999999999 5.63807080078125 0.42299999999999993 5.63807080078125 0.5715 C 5.63807080078125 0.7935 5.67707080078125 1.0905 5.7895708007812505 1.0905 C 5.98757080078125 1.0905 6.0220708007812505 1.0305 6.05957080078125 0.9105 C 6.11057080078125 0.798 6.26207080078125 0.243 6.307070800781251 0.1815 C 6.30857080078125 0.18899999999999995 6.30857080078125 0.1964999999999999 6.30857080078125 0.20399999999999996 C 6.30857080078125 0.21899999999999997 6.307070800781251 0.237 6.307070800781251 0.25349999999999995 C 6.307070800781251 0.3869999999999999 6.29357080078125 0.5579999999999999 6.29357080078125 0.729 C 6.29357080078125 0.9119999999999999 6.32057080078125 1.08 6.47657080078125 1.08 C 6.4915708007812505 1.08 6.56507080078125 1.074 6.60257080078125 1.0454999999999999 C 6.7735708007812505 0.9165 6.80807080078125 0.6824999999999999 6.84707080078125 0.5369999999999999 C 6.84707080078125 0.5369999999999999 6.84557080078125 0.5235 6.84407080078125 0.5235 C 6.84407080078125 0.5549999999999999 6.80357080078125 0.6315 6.80357080078125 0.6645 C 6.80357080078125 0.6719999999999999 6.79757080078125 0.6749999999999999 6.79757080078125 0.6779999999999999 C 6.79757080078125 0.6824999999999999 6.79907080078125 0.6884999999999999 6.79907080078125 0.6884999999999999 C 6.78407080078125 0.6884999999999999 6.78557080078125 0.7275 6.775070800781251 0.7275 C 6.775070800781251 0.7095 6.80507080078125 0.6359999999999999 6.80957080078125 0.6194999999999999 C 6.81407080078125 0.606 6.84107080078125 0.5129999999999999 6.84557080078125 0.48749999999999993 C 6.84407080078125 0.48449999999999993 6.84407080078125 0.46799999999999997 6.84407080078125 0.46499999999999997 C 6.83807080078125 0.486 6.82907080078125 0.5445 6.823070800781251 0.5445 C 6.8215708007812506 0.5459999999999999 6.81107080078125 0.5925 6.80957080078125 0.6 C 6.80807080078125 0.597 6.80657080078125 0.5954999999999999 6.80657080078125 0.5925 C 6.80957080078125 0.5715 6.824570800781251 0.5279999999999999 6.82907080078125 0.5129999999999999 C 6.82907080078125 0.507 6.83057080078125 0.507 6.83057080078125 0.504 C 6.82907080078125 0.5025 6.82907080078125 0.49949999999999994 6.82907080078125 0.49649999999999994 C 6.82907080078125 0.492 6.83507080078125 0.4365 6.83957080078125 0.4365 C 6.83957080078125 0.4365 6.84107080078125 0.43799999999999994 6.84107080078125 0.4425 C 6.8425708007812505 0.44399999999999995 6.8425708007812505 0.44699999999999995 6.8425708007812505 0.4485 C 6.8425708007812505 0.4514999999999999 6.8425708007812505 0.45299999999999996 6.84557080078125 0.45299999999999996 C 6.84857080078125 0.4365 6.85757080078125 0.4155 6.85757080078125 0.4109999999999999 C 6.85457080078125 0.4155 6.85307080078125 0.4185 6.85157080078125 0.4185 C 6.84857080078125 0.4185 6.84857080078125 0.4139999999999999 6.84857080078125 0.4079999999999999 C 6.84857080078125 0.37049999999999994 6.85907080078125 0.3464999999999999 6.86057080078125 0.3464999999999999 C 6.86057080078125 0.36449999999999994 6.85607080078125 0.384 6.85607080078125 0.40049999999999997 C 6.85907080078125 0.37949999999999995 6.88607080078125 0.33899999999999997 6.88607080078125 0.3075 C 6.88607080078125 0.2955 6.88757080078125 0.2879999999999999 6.88757080078125 0.27749999999999997 C 6.88757080078125 0.2759999999999999 6.89657080078125 0.25649999999999995 6.89657080078125 0.25049999999999994 C 6.89507080078125 0.25049999999999994 6.89057080078125 0.252 6.89057080078125 0.252 C 6.89057080078125 0.243 6.90257080078125 0.21599999999999997 6.90857080078125 0.1994999999999999 C 6.90407080078125 0.20099999999999996 6.90107080078125 0.2054999999999999 6.89957080078125 0.2054999999999999 C 6.89807080078125 0.2054999999999999 6.91157080078125 0.18599999999999994 6.9130708007812505 0.1845 L 6.9130708007812505 0.1755 C 6.916070800781251 0.16349999999999998 6.94007080078125 0.10949999999999993 6.94607080078125 0.10049999999999992 C 6.94607080078125 0.09299999999999997 6.93857080078125 0.08999999999999997 6.93407080078125 0.08999999999999997 C 6.92207080078125 0.08999999999999997 6.9130708007812505 0.09149999999999991 6.90407080078125 0.09149999999999991 Z M 7.449985107421875 0.12749999999999995 C 7.460485107421874 0.1349999999999999 7.470985107421875 0.13949999999999996 7.479985107421875 0.13949999999999996 C 7.497985107421875 0.13949999999999996 7.5114851074218745 0.126 7.5114851074218745 0.10349999999999993 C 7.5114851074218745 0.09599999999999997 7.509985107421874 0.08850000000000002 7.506985107421874 0.0794999999999999 C 7.484485107421875 0.025499999999999856 7.446985107421875 0 7.397485107421875 0 C 7.170985107421875 0 6.951985107421875 0.1785 6.951985107421875 0.4139999999999999 C 6.951985107421875 0.4245 6.951985107421875 0.43499999999999994 6.953485107421875 0.4455 C 6.966985107421875 0.591 7.0659851074218745 0.7454999999999999 7.101985107421875 0.8564999999999999 C 7.107985107421875 0.873 7.109485107421875 0.8865 7.109485107421875 0.9015 C 7.109485107421875 0.96 7.0674851074218745 1.005 7.008985107421875 1.005 C 6.951985107421875 1.005 6.942985107421875 0.987 6.914485107421875 0.969 C 6.911485107421875 0.9704999999999999 6.909985107421875 0.9704999999999999 6.908485107421875 0.9704999999999999 C 6.9024851074218745 0.9704999999999999 6.900985107421874 0.963 6.891985107421875 0.9584999999999999 C 6.887485107421875 0.9584999999999999 6.888985107421875 0.9615 6.885985107421875 0.9675 C 6.885985107421875 1.0005 6.9504851074218745 1.0845 6.978985107421875 1.0995 C 7.002985107421875 1.1205 7.0674851074218745 1.1265 7.082485107421875 1.1265 C 7.199485107421875 1.1265 7.320985107421874 1.0095 7.329985107421875 0.8819999999999999 C 7.329985107421875 0.8744999999999999 7.331485107421875 0.867 7.331485107421875 0.8594999999999999 C 7.331485107421875 0.696 7.196485107421875 0.51 7.187485107421875 0.363 L 7.187485107421875 0.3554999999999999 C 7.187485107421875 0.255 7.305985107421875 0.126 7.425985107421875 0.126 C 7.433485107421875 0.126 7.4424851074218745 0.126 7.449985107421875 0.12749999999999995 Z" fill="#f62dae" fill-rule="nonzero"></path></g><g><path d=" M 2.6467395401000986 1.6019953124999997 Q 2.6397082901000983 1.5940265624999999 2.6303332901000984 1.5876984374999998 Q 2.6209582901000985 1.5813703124999998 2.6092395401000985 1.5766828124999996 Q 2.5975207901000985 1.5719953124999997 2.5841614151000987 1.5691828124999998 Q 2.5708020401000984 1.5663703124999997 2.5558020401000987 1.5663703124999997 Q 2.5122082901000984 1.5663703124999997 2.4918176651000987 1.5830109374999997 Q 2.4714270401000986 1.5996515624999996 2.4714270401000986 1.6282453124999998 Q 2.4714270401000986 1.6479328124999997 2.4810364151000983 1.6591828124999997 Q 2.4906457901000985 1.6704328124999996 2.5112707901000983 1.6774640624999997 Q 2.5318957901000987 1.6844953124999997 2.5637707901000986 1.6919953124999998 Q 2.5993957901000986 1.6994953124999999 2.6251770401000987 1.7098078124999998 Q 2.6509582901000983 1.7201203124999997 2.6650207901000984 1.7376984374999997 Q 2.6790832901000985 1.7552765624999997 2.6790832901000985 1.7852765624999998 Q 2.6790832901000985 1.8082453124999998 2.6701770401000986 1.8251203124999997 Q 2.6612707901000987 1.8419953124999997 2.6453332901000985 1.8532453124999997 Q 2.6293957901000984 1.8644953124999997 2.6073645401000984 1.8698859374999997 Q 2.5853332901000985 1.8752765624999999 2.5590832901000984 1.8752765624999999 Q 2.5333020401000983 1.8752765624999999 2.5096301651000985 1.8698859374999997 Q 2.4859582901000987 1.8644953124999997 2.4648645401000984 1.8539484374999997 Q 2.4437707901000985 1.8434015624999998 2.4254895401000987 1.8269953124999998 L 2.4418957901000984 1.8002765624999997 Q 2.4508020401000987 1.8096515624999998 2.4632239151000985 1.8178546874999997 Q 2.4756457901000983 1.8260578124999998 2.4908801651000987 1.8326203124999998 Q 2.5061145401000986 1.8391828124999998 2.5236926651000986 1.8426984374999997 Q 2.5412707901000986 1.8462140624999996 2.5600207901000984 1.8462140624999996 Q 2.5998645401000986 1.8462140624999996 2.6221301651000983 1.8316828124999998 Q 2.6443957901000985 1.8171515624999997 2.6443957901000985 1.7885578124999997 Q 2.6443957901000985 1.7679328124999998 2.6331457901000985 1.7555109374999998 Q 2.6218957901000985 1.7430890624999997 2.5993957901000986 1.7351203124999999 Q 2.5768957901000986 1.7271515624999998 2.5440832901000987 1.7196515624999997 Q 2.5093957901000987 1.7116828124999999 2.4854895401000987 1.7018390624999997 Q 2.4615832901000987 1.6919953124999998 2.4496301651000985 1.6758234374999998 Q 2.4376770401000987 1.6596515624999997 2.4376770401000987 1.6329328124999998 Q 2.4376770401000987 1.6019953124999997 2.4529114151000986 1.5806671874999998 Q 2.4681457901000985 1.5593390624999999 2.4948645401000986 1.5483234374999997 Q 2.5215832901000983 1.5373078124999997 2.5562707901000987 1.5373078124999997 Q 2.5783020401000987 1.5373078124999997 2.5972864151000987 1.5417609374999999 Q 2.6162707901000983 1.5462140624999998 2.6324426651000987 1.5546515624999997 Q 2.6486145401000987 1.5630890624999998 2.6626770401000988 1.5757453124999998 L 2.6467395401000986 1.6019953124999997 Z M 2.741424522399903 1.8724640624999997 L 2.741424522399903 1.5396515624999998 L 2.7742370223999036 1.5396515624999998 L 2.7742370223999036 1.8724640624999997 L 2.741424522399903 1.8724640624999997 Z M 2.8951678848266615 1.6001203124999996 L 2.8951678848266615 1.8724640624999997 L 2.862355384826661 1.8724640624999997 L 2.862355384826661 1.5396515624999998 L 2.8895428848266613 1.5396515624999998 L 3.1079803848266616 1.8171515624999997 L 3.1079803848266616 1.5401203124999998 L 3.1407928848266615 1.5401203124999998 L 3.1407928848266615 1.8724640624999997 L 3.1103241348266613 1.8724640624999997 L 2.8951678848266615 1.6001203124999996 Z M 3.206873817443849 1.7037140624999998 Q 3.206873817443849 1.6732453124999997 3.217420692443849 1.6439484374999997 Q 3.2279675674438493 1.6146515624999997 3.248123817443849 1.5905109374999997 Q 3.268280067443849 1.5663703124999997 3.2978113174438493 1.5520734374999998 Q 3.327342567443849 1.5377765624999997 3.364842567443849 1.5377765624999997 Q 3.409373817443849 1.5377765624999997 3.441014442443849 1.5581671874999998 Q 3.472655067443849 1.5785578124999997 3.487655067443849 1.6104328124999998 L 3.4618738174438493 1.6263703124999997 Q 3.4510925674438493 1.6043390624999998 3.434686317443849 1.5914484374999998 Q 3.418280067443849 1.5785578124999997 3.399764442443849 1.5729328124999997 Q 3.381248817443849 1.5673078124999997 3.362967567443849 1.5673078124999997 Q 3.3329675674438493 1.5673078124999997 3.309998817443849 1.5792609374999997 Q 3.287030067443849 1.5912140624999997 3.271326942443849 1.6111359374999998 Q 3.255623817443849 1.6310578124999997 3.247655067443849 1.6556671874999997 Q 3.2396863174438493 1.6802765624999998 3.2396863174438493 1.7055890624999996 Q 3.2396863174438493 1.7332453124999998 3.249061317443849 1.7585578124999997 Q 3.258436317443849 1.7838703124999997 3.275311317443849 1.8033234374999998 Q 3.292186317443849 1.8227765624999996 3.3149206924438492 1.8342609374999999 Q 3.337655067443849 1.8457453124999998 3.364373817443849 1.8457453124999998 Q 3.383123817443849 1.8457453124999998 3.4028113174438492 1.8391828124999998 Q 3.422498817443849 1.8326203124999998 3.439608192443849 1.8190265624999997 Q 3.456717567443849 1.8054328124999997 3.467030067443849 1.7838703124999997 L 3.494217567443849 1.7979328124999998 Q 3.483905067443849 1.8227765624999996 3.462342567443849 1.8401203124999999 Q 3.440780067443849 1.8574640624999998 3.414295692443849 1.8663703124999997 Q 3.387811317443849 1.8752765624999999 3.362498817443849 1.8752765624999999 Q 3.328280067443849 1.8752765624999999 3.299686317443849 1.8605109374999997 Q 3.271092567443849 1.8457453124999998 3.250233192443849 1.8211359374999998 Q 3.229373817443849 1.7965265624999998 3.218123817443849 1.7658234374999997 Q 3.206873817443849 1.7351203124999999 3.206873817443849 1.7037140624999998 Z M 3.7787366867065444 1.8434015624999998 L 3.7787366867065444 1.8724640624999997 L 3.5551429367065444 1.8724640624999997 L 3.5551429367065444 1.5396515624999998 L 3.7745179367065447 1.5396515624999998 L 3.7745179367065447 1.5687140624999998 L 3.5879554367065447 1.5687140624999998 L 3.5879554367065447 1.6887140624999997 L 3.7506116867065447 1.6887140624999997 L 3.7506116867065447 1.7163703124999998 L 3.5879554367065447 1.7163703124999998 L 3.5879554367065447 1.8434015624999998 L 3.7787366867065444 1.8434015624999998 Z M 3.9483733749389667 1.8724640624999997 Q 3.9483733749389667 1.8565265624999998 3.951185874938967 1.8403546874999996 Q 3.953998374938967 1.8241828124999997 3.9619671249389667 1.8082453124999998 Q 3.9699358749389666 1.7923078124999998 3.9854046249389667 1.7775421874999997 Q 4.000873374938966 1.7627765624999998 4.0261858749389665 1.7496515624999998 Q 4.039779624938967 1.7426203124999997 4.054310874938967 1.7358234374999997 Q 4.068842124938967 1.7290265624999996 4.081732749938967 1.7208234374999998 Q 4.094623374938966 1.7126203124999997 4.1023577499389665 1.7020734374999997 Q 4.110092124938967 1.6915265624999998 4.110092124938967 1.6769953124999997 Q 4.110092124938967 1.6652765624999997 4.1032952499389665 1.6540265624999997 Q 4.0964983749389665 1.6427765624999997 4.082670249938967 1.6357453124999997 Q 4.068842124938967 1.6287140624999998 4.048217124938967 1.6287140624999998 Q 4.033217124938966 1.6287140624999998 4.021029624938967 1.6329328124999998 Q 4.008842124938967 1.6371515624999997 3.999467124938967 1.6434796874999997 Q 3.990092124938967 1.6498078124999997 3.9835296249389667 1.6561359374999998 Q 3.976967124938967 1.6624640624999998 3.9727483749389667 1.6666828124999997 L 3.952592124938967 1.6446515624999998 Q 3.954935874938967 1.6418390624999997 3.9631389999389666 1.6345734374999998 Q 3.9713421249389667 1.6273078124999998 3.984232749938967 1.6193390624999997 Q 3.9971233749389667 1.6113703124999996 4.014701499938967 1.6057453124999999 Q 4.032279624938967 1.6001203124999996 4.053373374938967 1.6001203124999996 Q 4.081967124938966 1.6001203124999996 4.1023577499389665 1.6101984374999998 Q 4.122748374938967 1.6202765624999997 4.133529624938967 1.6371515624999997 Q 4.1443108749389665 1.6540265624999997 4.1443108749389665 1.6737140624999998 Q 4.1443108749389665 1.6929328124999998 4.136107749938967 1.7067609374999997 Q 4.127904624938966 1.7205890624999998 4.1150139999389665 1.7306671874999997 Q 4.102123374938967 1.7407453124999996 4.088295249938967 1.7480109374999997 Q 4.074467124938967 1.7552765624999997 4.063217124938967 1.7604328124999997 Q 4.041185874938967 1.7707453124999997 4.0261858749389665 1.7810578124999998 Q 4.011185874938967 1.7913703124999998 4.002279624938967 1.8019171874999997 Q 3.9933733749389666 1.8124640624999997 3.9884514999389666 1.8225421874999999 Q 3.9835296249389667 1.8326203124999998 3.9816546249389666 1.8434015624999998 L 4.149467124938967 1.8434015624999998 L 4.149467124938967 1.8724640624999997 L 3.9483733749389667 1.8724640624999997 Z M 4.437746543884279 1.7351203124999999 Q 4.437746543884279 1.7763703124999997 4.422512168884279 1.8084796874999998 Q 4.407277793884279 1.8405890624999997 4.380559043884279 1.8588703124999997 Q 4.353840293884279 1.8771515624999997 4.320090293884279 1.8771515624999997 Q 4.286340293884279 1.8771515624999997 4.259855918884279 1.8588703124999997 Q 4.233371543884279 1.8405890624999997 4.217902793884279 1.8084796874999998 Q 4.202434043884279 1.7763703124999997 4.202434043884279 1.7351203124999999 Q 4.202434043884279 1.6938703124999996 4.217902793884279 1.6617609374999998 Q 4.233371543884279 1.6296515624999999 4.259855918884279 1.6111359374999998 Q 4.286340293884279 1.5926203124999998 4.320090293884279 1.5926203124999998 Q 4.353840293884279 1.5926203124999998 4.380559043884279 1.6111359374999998 Q 4.407277793884279 1.6296515624999999 4.422512168884279 1.6617609374999998 Q 4.437746543884279 1.6938703124999996 4.437746543884279 1.7351203124999999 Z M 4.405402793884279 1.7351203124999999 Q 4.405402793884279 1.7018390624999997 4.394621543884279 1.6765265624999999 Q 4.383840293884279 1.6512140624999998 4.364621543884279 1.6369171874999997 Q 4.345402793884279 1.6226203124999998 4.320090293884279 1.6226203124999998 Q 4.294777793884279 1.6226203124999998 4.275559043884279 1.6369171874999997 Q 4.256340293884279 1.6512140624999998 4.245324668884279 1.6765265624999999 Q 4.234309043884279 1.7018390624999997 4.234309043884279 1.7351203124999999 Q 4.234309043884279 1.7684015624999998 4.245324668884279 1.7937140624999997 Q 4.256340293884279 1.8190265624999997 4.275559043884279 1.8330890624999998 Q 4.294777793884279 1.8471515624999997 4.320090293884279 1.8471515624999997 Q 4.345402793884279 1.8471515624999997 4.364621543884279 1.8328546874999998 Q 4.383840293884279 1.8185578124999997 4.394621543884279 1.7934796874999996 Q 4.405402793884279 1.7684015624999998 4.405402793884279 1.7351203124999999 Z M 4.488840065002443 1.8724640624999997 Q 4.488840065002443 1.8565265624999998 4.491652565002443 1.8403546874999996 Q 4.494465065002443 1.8241828124999997 4.502433815002443 1.8082453124999998 Q 4.510402565002443 1.7923078124999998 4.525871315002443 1.7775421874999997 Q 4.541340065002443 1.7627765624999998 4.566652565002443 1.7496515624999998 Q 4.5802463150024435 1.7426203124999997 4.594777565002444 1.7358234374999997 Q 4.609308815002443 1.7290265624999996 4.6221994400024435 1.7208234374999998 Q 4.635090065002443 1.7126203124999997 4.642824440002443 1.7020734374999997 Q 4.6505588150024435 1.6915265624999998 4.6505588150024435 1.6769953124999997 Q 4.6505588150024435 1.6652765624999997 4.6437619400024435 1.6540265624999997 Q 4.636965065002443 1.6427765624999997 4.623136940002444 1.6357453124999997 Q 4.609308815002443 1.6287140624999998 4.588683815002443 1.6287140624999998 Q 4.573683815002443 1.6287140624999998 4.561496315002444 1.6329328124999998 Q 4.549308815002443 1.6371515624999997 4.539933815002443 1.6434796874999997 Q 4.530558815002443 1.6498078124999997 4.523996315002443 1.6561359374999998 Q 4.517433815002443 1.6624640624999998 4.513215065002443 1.6666828124999997 L 4.493058815002443 1.6446515624999998 Q 4.495402565002443 1.6418390624999997 4.503605690002443 1.6345734374999998 Q 4.511808815002444 1.6273078124999998 4.524699440002443 1.6193390624999997 Q 4.537590065002443 1.6113703124999996 4.555168190002443 1.6057453124999999 Q 4.572746315002443 1.6001203124999996 4.593840065002444 1.6001203124999996 Q 4.622433815002443 1.6001203124999996 4.642824440002443 1.6101984374999998 Q 4.6632150650024435 1.6202765624999997 4.6739963150024435 1.6371515624999997 Q 4.6847775650024435 1.6540265624999997 4.6847775650024435 1.6737140624999998 Q 4.6847775650024435 1.6929328124999998 4.676574440002443 1.7067609374999997 Q 4.668371315002443 1.7205890624999998 4.6554806900024435 1.7306671874999997 Q 4.642590065002444 1.7407453124999996 4.628761940002443 1.7480109374999997 Q 4.614933815002443 1.7552765624999997 4.6036838150024435 1.7604328124999997 Q 4.581652565002443 1.7707453124999997 4.566652565002443 1.7810578124999998 Q 4.551652565002443 1.7913703124999998 4.542746315002443 1.8019171874999997 Q 4.533840065002443 1.8124640624999997 4.528918190002443 1.8225421874999999 Q 4.523996315002443 1.8326203124999998 4.522121315002443 1.8434015624999998 L 4.689933815002443 1.8434015624999998 L 4.689933815002443 1.8724640624999997 L 4.488840065002443 1.8724640624999997 Z M 4.877900733947756 1.7618390624999998 Q 4.898994483947756 1.7651203124999997 4.913994483947756 1.7768390624999997 Q 4.928994483947756 1.7885578124999997 4.937431983947756 1.8063703124999997 Q 4.945869483947756 1.8241828124999997 4.945869483947756 1.8466828124999997 Q 4.945869483947756 1.8748078124999998 4.932275733947756 1.8963703124999998 Q 4.918681983947756 1.9179328124999997 4.8943069839477555 1.9296515624999997 Q 4.8699319839477555 1.9413703124999997 4.837588233947756 1.9413703124999997 Q 4.801963233947756 1.9413703124999997 4.775244483947756 1.9270734374999998 Q 4.748525733947756 1.9127765624999997 4.734931983947756 1.8874640624999997 L 4.756963233947756 1.8673078124999998 Q 4.767275733947756 1.8874640624999997 4.787431983947756 1.8998859374999997 Q 4.807588233947756 1.9123078124999997 4.837588233947756 1.9123078124999997 Q 4.872275733947756 1.9123078124999997 4.892666358947756 1.8951984374999997 Q 4.913056983947756 1.8780890624999997 4.913056983947756 1.8462140624999996 Q 4.913056983947756 1.8143390624999998 4.891728858947756 1.7953546874999997 Q 4.870400733947756 1.7763703124999997 4.831025733947756 1.7763703124999997 L 4.819306983947756 1.7763703124999997 L 4.819306983947756 1.7491828124999997 L 4.831963233947756 1.7491828124999997 Q 4.868056983947756 1.7491828124999997 4.887275733947756 1.7323078124999998 Q 4.906494483947756 1.7154328124999998 4.906494483947756 1.6891828124999997 Q 4.906494483947756 1.6699640624999998 4.897588233947756 1.6573078124999998 Q 4.888681983947756 1.6446515624999998 4.873447608947756 1.6380890624999997 Q 4.8582132339477555 1.6315265624999997 4.838525733947756 1.6315265624999997 Q 4.811806983947756 1.6315265624999997 4.791416358947756 1.6434796874999997 Q 4.771025733947756 1.6554328124999997 4.760713233947756 1.6765265624999999 L 4.740088233947756 1.6568390624999998 Q 4.748056983947756 1.6404328124999998 4.763056983947756 1.6282453124999998 Q 4.778056983947756 1.6160578124999998 4.798213233947756 1.6092609374999998 Q 4.818369483947756 1.6024640624999997 4.841338233947756 1.6024640624999997 Q 4.870400733947756 1.6024640624999997 4.8924319839477555 1.6130109374999997 Q 4.914463233947756 1.6235578124999996 4.927119483947756 1.6423078124999997 Q 4.939775733947756 1.6610578124999997 4.939775733947756 1.6863703124999998 Q 4.939775733947756 1.7051203124999998 4.932275733947756 1.7210578124999998 Q 4.924775733947756 1.7369953124999997 4.9109476089477555 1.7477765624999997 Q 4.897119483947756 1.7585578124999997 4.877900733947756 1.7618390624999998 Z" fill="#ef9cda" fill-rule="nonzero"></path></g><g clip-path="url(&quot;#SvgjsClipPath1001&quot;)"><g clip-path="url(&quot;#SvgjsClipPath1002&quot;)"><g clip-path="url(&quot;#SvgjsClipPath1000&quot;)"><path d=" M 6.883693000653027 -3.423575867267079 C 6.883693000653027 -1.6591733693743977 5.453362458830182 -0.22884282755155283 3.688959960937501 -0.22884282755155283 C 1.9245574630448194 -0.22884282755155283 0.49422692122197454 -1.6591733693743977 0.49422692122197454 -3.423575867267079 C 0.49422692122197454 -5.18797836515976 1.9245574630448194 -6.618308906982605 3.688959960937501 -6.618308906982605 C 5.453362458830182 -6.618308906982605 6.883693000653027 -5.18797836515976 6.883693000653027 -3.423575867267079 Z" fill="#f62dae" transform="matrix(1,0,0,1,0,0)" fill-rule="nonzero"></path></g></g></g></g><defs><clipPath id="SvgjsClipPath1001"><path d="M0.49422692122197454,-6.597151734534158v6.347151734534158h6.3894660794310525v-6.347151734534158ZM3.405511112759041 -3.9846944964755493L3.9168259691771365 -3.9846944964755493L3.9168259691771365 -3.7680356590102546L3.808890475603517 -3.7680356590102546L3.5339307146021066 -2.790313414303234L3.19357937720208 -2.790313414303234L3.013161654367344 -3.535619815183848L2.82880467994233 -2.790313414303234L2.4916047438145257 -2.790313414303234L2.2119178809047817 -3.7680356590102546L2.091376782242272 -3.7680356590102546L2.091376782242272 -3.9846944964755493L2.603479488978423 -3.9846944964755493L2.603479488978423 -3.7680356590102546L2.478999138725636 -3.7680356590102546L2.6546897596520385 -3.124361949158816L2.8666214952089994 -3.9823309455213822L3.1597018135256887 -3.9823309455213822L3.3676942974923714 -3.124361949158816L3.5441727687368294 -3.7680356590102546L3.405511112759041 -3.7680356590102546L3.405511112759041 -3.9846944964755493ZM4.776370666175815 -3.9846944964755493L5.23017244937585 -3.9846944964755493L5.23017244937585 -3.7680356590102546L5.133266860255009 -3.7680356590102546L5.133266860255009 -2.790313414303234L4.871700554660544 -2.790313414303234L4.37456700396745 -3.5624067259977386L4.37456700396745 -3.006184401450473L4.474623994360513 -3.006184401450473L4.474623994360513 -2.790313414303234L4.021610061478533 -2.790313414303234L4.021610061478533 -3.006184401450473L4.1200913512354855 -3.006184401450473L4.1200913512354855 -3.7680356590102546L4.023185762114645 -3.7680356590102546L4.023185762114645 -3.9846944964755493L4.384021207784118 -3.9846944964755493L4.878003357204989 -3.2023591306463217L4.878003357204989 -3.7680356590102546L4.776370666175815 -3.7680356590102546L4.776370666175815 -3.9846944964755493Z"></path></clipPath><clipPath id="SvgjsClipPath1002"><path d=" M 0.49422692122197454 -6.597151734534158 h 6.3894660794310525 v 6.347151734534158 h -6.3894660794310525 Z"></path></clipPath><clipPath id="SvgjsClipPath1000"><path d=" M 0.49422692122197454 -6.597151734534158 L 0.49422692122197454 -0.25 L 6.883693000653027 -0.25 L 6.883693000653027 -6.597151734534158 Z M 3.405511112759041 -3.9846944964755493 L 3.9168259691771365 -3.9846944964755493 L 3.9168259691771365 -3.7680356590102546 L 3.808890475603517 -3.7680356590102546 L 3.5339307146021066 -2.790313414303234 L 3.1935793772020804 -2.790313414303234 L 3.013161654367344 -3.535619815183848 L 2.82880467994233 -2.790313414303234 L 2.4916047438145257 -2.790313414303234 L 2.2119178809047817 -3.7680356590102546 L 2.0913767822422726 -3.7680356590102546 L 2.0913767822422726 -3.9846944964755493 L 2.603479488978423 -3.9846944964755493 L 2.603479488978423 -3.7680356590102546 L 2.478999138725636 -3.7680356590102546 L 2.6546897596520385 -3.124361949158816 L 2.8666214952089994 -3.9823309455213822 L 3.1597018135256887 -3.9823309455213822 L 3.3676942974923714 -3.124361949158816 L 3.54417276873683 -3.7680356590102546 L 3.405511112759041 -3.7680356590102546 L 3.405511112759041 -3.9846944964755493 Z M 4.776370666175815 -3.9846944964755493 L 5.23017244937585 -3.9846944964755493 L 5.23017244937585 -3.7680356590102546 L 5.133266860255009 -3.7680356590102546 L 5.133266860255009 -2.790313414303234 L 4.871700554660544 -2.790313414303234 L 4.374567003967449 -3.5624067259977386 L 4.374567003967449 -3.0061844014504735 L 4.474623994360513 -3.0061844014504735 L 4.474623994360513 -2.790313414303234 L 4.021610061478533 -2.790313414303234 L 4.021610061478533 -3.0061844014504735 L 4.1200913512354855 -3.0061844014504735 L 4.1200913512354855 -3.7680356590102546 L 4.023185762114645 -3.7680356590102546 L 4.023185762114645 -3.9846944964755493 L 4.384021207784118 -3.9846944964755493 L 4.878003357204989 -3.2023591306463217 L 4.878003357204989 -3.7680356590102546 L 4.776370666175815 -3.7680356590102546 L 4.776370666175815 -3.9846944964755493 Z"></path></clipPath></defs></svg>